<!-- Generated by IcoMoon.io -->
<svg version="1.1" xmlns="http://www.w3.org/2000/svg" width="1024" height="1024" viewBox="0 0 1024 1024">
<path d="M672 480c0 70.692-71.634 128-160 128s-160-57.308-160-128c0-70.692 71.634-128 160-128s160 57.308 160 128z"></path>
<path d="M354.223 965.467c-1.462-17.387-2.223-35.249-2.223-53.467 0-176.731 71.634-320 160-320s160 143.269 160 320c0 18.218-0.761 36.080-2.223 53.467-49.415 17.191-102.505 26.533-157.777 26.533s-108.362-9.342-157.777-26.533zM457.8 368.766c0 0-31.284-71.954-66.271-96.766 0 0-37.643 98.81-17.703 180.775z"></path>
<path d="M560.008 368.766c0 0 31.284-71.954 66.271-96.766 0 0 37.643 98.81 17.703 180.775z"></path>
</svg>
