<!-- Generated by IcoMoon.io -->
<svg version="1.1" xmlns="http://www.w3.org/2000/svg" width="512" height="512" viewBox="0 0 512 512">
<path d="M502.346 233.197l-223.548-223.54c-12.869-12.877-33.748-12.877-46.634 0l-51.941 51.938 39.085 39.085c6.266-2.998 13.282-4.68 20.692-4.68 26.51 0 48 21.49 48 48 0 7.41-1.682 14.427-4.681 20.693l63.988 63.987c6.266-2.998 13.283-4.68 20.693-4.68 26.51 0 48 21.49 48 48s-21.49 48-48 48-48-21.49-48-48c0-7.41 1.682-14.427 4.681-20.693l-63.988-63.987c-1.521 0.728-3.088 1.371-4.692 1.938v133.484c18.641 6.591 32 24.359 32 45.258 0 26.51-21.49 48-48 48s-48-21.49-48-48c0-20.898 13.359-38.667 32-45.258v-133.484c-18.641-6.59-32-24.36-32-45.258 0-7.41 1.682-14.426 4.68-20.692l-39.085-39.085-147.946 147.938c-12.875 12.888-12.875 33.767 0 46.644l223.56 223.54c12.869 12.875 33.742 12.875 46.634 0l222.503-222.503c12.879-12.881 12.879-33.77-0.001-46.645z"></path>
</svg>
