<!-- Generated by IcoMoon.io -->
<svg version="1.1" xmlns="http://www.w3.org/2000/svg" width="512" height="512" viewBox="0 0 512 512">
<path fill="#000" d="M369.531 91.454c8.302 3.475 12.579 12.517 10.315 20.976l-5.964 15.498c-1.076 2.858-2.269 6.093-3.531 9.627h81.203c9.818 0 17.777 7.959 17.777 17.778s-7.959 17.778-17.777 17.778h-92.75c-2.738 9.235-4.679 17.316-6.86 32.057 16.754-2.83 34.062-2.699 50.512 0.267 3.112-5.16 8.771-8.611 15.235-8.611 9.819 0 17.777 7.959 17.777 17.778l-0.010 1.285c28.871 13.681 52.319 38.796 56.702 75.681 7.108 59.813-34.525 93.635-57.18 109.246l-9.285 6.226c-8.142 5.485-19.19 3.333-24.678-4.81-5.485-8.142-3.333-19.19 4.81-24.678l6.801-4.596c20.704-14.197 49.031-36.734 44.226-77.192-2.221-18.674-12.469-33.228-27.935-43.027-3.491 11.314-8.273 22.935-14.087 34.002-12.841 24.444-32.315 49.235-58.105 62.329-14.57 7.401-31.151 11.029-49.083 8.529-32.31-4.51-52.132-29.342-52.181-58.788-0.047-28.637 18.184-58.178 52.561-78.099 2.107-1.224 4.255-2.38 6.438-3.47l1.406-10.872c2.051-15.030 3.888-24.632 6.064-33.257h-48.154c-9.818 0-17.778-7.959-17.778-17.778s7.96-17.778 17.778-17.778h58.949l3.363-9.769 5.712-15.529 4.465-11.264c3.79-9.056 14.208-13.33 23.265-9.538zM160.293 126.338c29.238 8.578 45.201 26.335 53.043 45.989 5.76 14.435 6.857 29.319 7.064 40.179l0.046 144.234c0 9.818-7.96 17.777-17.779 17.777s-17.778-7.959-17.778-17.777v-7.125c-2.95 1.754-6.078 3.525-9.364 5.269-22.566 11.982-55.178 24.147-89.063 18.048-37.541-6.755-61.054-37.803-66.375-69.964-5.415-32.728 7.486-69.623 45.085-87.632 34.132-16.349 70.874-14.894 97.719-10.124 8.095 1.439 15.476 3.211 21.857 4.994-0.31-8.326-1.298-16.834-4.438-24.702-3.943-9.881-11.647-19.651-29.97-25.032-40.176-11.681-71.734 2.773-81.332 8.069-8.596 4.744-19.41 1.62-24.154-6.976s-1.62-19.411 6.976-24.154l3.626-1.912c16.445-8.3 55.831-23.417 104.836-9.16zM80.532 247.403c-21.124 10.119-28.623 30.080-25.367 49.763 3.35 20.252 17.579 37.172 37.593 40.772 22.245 4.003 46.16-3.873 66.090-14.457 8.082-4.291 15.084-8.801 20.495-12.603l5.544-4.045v-59.401c-6.941-2.335-16.761-5.177-28.219-7.213-23.381-4.155-51.547-4.596-76.138 7.182zM313.344 260.006c-16.587 13.384-22.341 28.169-22.325 38.744 0.022 12.082 7.12 21.618 21.542 23.632 4.464 0.621 8.803 0.58 13.039-0.066l-2.639-8.58c-0.893-3.093-1.789-6.411-2.661-9.933-3.039-12.284-5.812-27.228-6.957-43.797zM348.352 242.292c-0.192 19.968 2.851 38.364 6.464 52.972l1.803 6.837c0.303 1.080 0.605 2.13 0.906 3.149 9.846-9.209 18.671-21.419 25.832-35.048 5.364-10.209 9.417-20.501 12.171-29.892-15.579-2.719-32.069-2.038-47.177 1.982z"></path>
</svg>
